PathFileType  4	(X/Y/Z) C:\Users\wagnerel85475\Documents\Thesis\opencap-core\Data\3375ffbc-daeb-4a43-b4f7-ac9899cd4c71\MarkerData\PreAugmentation
DataRate	CameraRate	NumFrames	NumMarkers	Units	OrigDataRate	OrigDataStartFrame	OrigNumFrames
60.0	60.0	12	20	m	60.0	235	469
Frame#	Time	Neck			RShoulder			RElbow			RWrist			LShoulder			LElbow			LWrist			midHip			RHip			RKnee			RAnkle			LHip			LKnee			LAnkle			LBigToe			LSmallToe			LHeel			RBigToe			RSmallToe			RHeel			
		X1	Y1	Z1	X2	Y2	Z2	X3	Y3	Z3	X4	Y4	Z4	X5	Y5	Z5	X6	Y6	Z6	X7	Y7	Z7	X8	Y8	Z8	X9	Y9	Z9	X10	Y10	Z10	X11	Y11	Z11	X12	Y12	Z12	X13	Y13	Z13	X14	Y14	Z14	X15	Y15	Z15	X16	Y16	Z16	X17	Y17	Z17	X18	Y18	Z18	X19	Y19	Z19	X20	Y20	Z20	

235	3.9000000	0.6275700	1.3209900	-0.1771200	0.6257200	1.3164400	0.0171900	0.5227100	1.0269000	0.0789500	0.5980800	0.7472600	0.1186600	0.6445100	1.3278800	-0.3603200	0.6453300	1.0570800	-0.4529800	0.8058100	0.8056200	-0.4994200	0.6573500	0.7878500	-0.1807700	0.6626800	0.7928100	-0.0587000	0.7703400	0.3525600	-0.0984000	0.8795400	-0.1591300	-0.0960100	0.6322100	0.7873900	-0.2891600	0.5081100	0.2950200	-0.2549500	0.2090300	-0.1545000	-0.2417400	0.5262400	-0.2267800	-0.2712600	0.4721600	-0.2288700	-0.3204000	0.1875300	-0.1983900	-0.2420600	1.0799000	-0.2137300	-0.0624500	1.0390000	-0.2103200	-0.0358500	0.8019200	-0.2240000	-0.1026400
236	3.9166667	0.6470400	1.3225700	-0.1747800	0.6470800	1.3165800	0.0191700	0.5308800	1.0290100	0.0813200	0.6076000	0.7445600	0.1177100	0.6772800	1.3314800	-0.3550900	0.6508600	1.0585100	-0.4498900	0.8125200	0.8046400	-0.4979800	0.6688700	0.7892200	-0.1781900	0.6743300	0.7970100	-0.0566800	0.7856800	0.3502600	-0.0986700	0.8844800	-0.1618200	-0.0951700	0.6602700	0.7898300	-0.2846200	0.5393500	0.3023900	-0.2604300	0.2170100	-0.1469100	-0.2425100	0.5181400	-0.2196700	-0.2740000	0.4634200	-0.2219400	-0.3206300	0.1981800	-0.1873500	-0.2460700	1.0851000	-0.2198300	-0.0661200	1.0422000	-0.2169800	-0.0350600	0.8026100	-0.2255100	-0.1028000
237	3.9333333	0.6718700	1.3243100	-0.1692200	0.6639800	1.3187100	0.0202900	0.5448800	1.0283100	0.0838600	0.6224600	0.7570500	0.1197400	0.7005200	1.3363700	-0.3510800	0.6595300	1.0608100	-0.4454400	0.8194900	0.8036200	-0.4947700	0.6864800	0.7922800	-0.1717700	0.6861500	0.8006000	-0.0546800	0.8110300	0.3515900	-0.0979500	0.8902300	-0.1633900	-0.0942500	0.6904300	0.7930200	-0.2811200	0.5739700	0.3078000	-0.2689400	0.2271200	-0.1380800	-0.2433700	0.5129100	-0.2136100	-0.2772700	0.4559500	-0.2145500	-0.3218300	0.2087800	-0.1716600	-0.2499900	1.0895600	-0.2202200	-0.0687700	1.0418000	-0.2203200	-0.0333700	0.8062300	-0.2256200	-0.1044100
238	3.9500000	0.6970000	1.3258900	-0.1621700	0.6830300	1.3211500	0.0240000	0.5690300	1.0277000	0.0879900	0.6425300	0.7506200	0.1249000	0.7128300	1.3406600	-0.3490100	0.6752900	1.0628800	-0.4384300	0.8299800	0.8030900	-0.4889100	0.7099000	0.7951800	-0.1640600	0.7075600	0.8029400	-0.0499500	0.8435500	0.3554100	-0.0966300	0.8933000	-0.1640100	-0.0936300	0.7134200	0.7949200	-0.2805700	0.6122000	0.3126000	-0.2746600	0.2378800	-0.1300900	-0.2453400	0.5129400	-0.2087200	-0.2807300	0.4506900	-0.2087700	-0.3235400	0.2212900	-0.1551000	-0.2547900	1.0910700	-0.2201200	-0.0695700	1.0394000	-0.2235800	-0.0323200	0.8090700	-0.2249300	-0.1058800
239	3.9666667	0.7158500	1.3283900	-0.1561100	0.7062000	1.3226100	0.0299300	0.5966400	1.0285600	0.0934600	0.6522600	0.7481100	0.1271400	0.7236200	1.3427900	-0.3461900	0.6973000	1.0640200	-0.4300600	0.8440400	0.8026800	-0.4812100	0.7298000	0.7968000	-0.1586800	0.7356300	0.8055600	-0.0432800	0.8707300	0.3608100	-0.0947800	0.8937600	-0.1643200	-0.0934300	0.7264800	0.7950000	-0.2811800	0.6559100	0.3189500	-0.2761500	0.2512700	-0.1225500	-0.2478200	0.5166900	-0.2036400	-0.2854700	0.4474500	-0.2031000	-0.3261900	0.2359500	-0.1420700	-0.2606700	1.0908900	-0.2202200	-0.0697800	1.0362100	-0.2262600	-0.0317700	0.8120400	-0.2229300	-0.1074000
240	3.9833333	0.7284800	1.3320800	-0.1519500	0.7279700	1.3238900	0.0351800	0.6184500	1.0281800	0.0986300	0.6565500	0.7398100	0.1268700	0.7419000	1.3444800	-0.3402000	0.7180900	1.0653600	-0.4232200	0.8584900	0.8016300	-0.4743200	0.7412700	0.7978800	-0.1561600	0.7594700	0.8081400	-0.0385600	0.8853600	0.3629400	-0.0925200	0.8932500	-0.1650700	-0.0932600	0.7367900	0.7950900	-0.2795000	0.7005900	0.3230200	-0.2763300	0.2710600	-0.1146200	-0.2491900	0.5212600	-0.1972900	-0.2918300	0.4461300	-0.1982600	-0.3298100	0.2530900	-0.1329500	-0.2665900	1.0899300	-0.2202700	-0.0704300	1.0333800	-0.2282600	-0.0309500	0.8171100	-0.2206300	-0.1090600
241	4.0000000	0.7412900	1.3356400	-0.1485700	0.7438500	1.3252600	0.0384600	0.6360200	1.0244400	0.1028100	0.6675000	0.7309000	0.1281600	0.7652100	1.3481100	-0.3321500	0.7307500	1.0670100	-0.4193600	0.8702700	0.7998200	-0.4705800	0.7508700	0.7989200	-0.1546600	0.7754500	0.8087300	-0.0380400	0.8903500	0.3626200	-0.0906000	0.8923000	-0.1657700	-0.0928500	0.7527200	0.7963400	-0.2740900	0.7367600	0.3253900	-0.2786600	0.2976800	-0.1055100	-0.2488500	0.5289600	-0.1888300	-0.2973200	0.4490100	-0.1923000	-0.3327200	0.2753700	-0.1251500	-0.2711000	1.0869700	-0.2212000	-0.0712600	1.0315600	-0.2294000	-0.0300500	0.8228700	-0.2194300	-0.1096800
242	4.0166667	0.7594100	1.3381600	-0.1436400	0.7585800	1.3261800	0.0412100	0.6580200	1.0210900	0.1068000	0.6868900	0.7232900	0.1325000	0.7836100	1.3526000	-0.3250800	0.7364800	1.0683500	-0.4171100	0.8779000	0.7982100	-0.4693200	0.7688900	0.7996900	-0.1528300	0.7904000	0.8068800	-0.0397700	0.8919700	0.3593500	-0.0895500	0.8908500	-0.1661400	-0.0922900	0.7744800	0.7979600	-0.2667700	0.7694200	0.3264100	-0.2829300	0.3284300	-0.0949900	-0.2487000	0.5455000	-0.1797700	-0.2977700	0.4616400	-0.1853500	-0.3316600	0.3038400	-0.1158200	-0.2735800	1.0823300	-0.2234800	-0.0709700	1.0303400	-0.2306200	-0.0293000	0.8257600	-0.2191600	-0.1089200
243	4.0333333	0.7805900	1.3400000	-0.1370500	0.7794100	1.3268400	0.0455200	0.6859000	1.0216100	0.1113700	0.7054100	0.7216300	0.1360600	0.7937300	1.3562900	-0.3207200	0.7413900	1.0689200	-0.4144500	0.8808600	0.7969300	-0.4679300	0.7986600	0.8007000	-0.1509200	0.8120300	0.8050700	-0.0403700	0.8930400	0.3528900	-0.0892300	0.8901200	-0.1676500	-0.0920300	0.7961100	0.7989400	-0.2615900	0.8093000	0.3298700	-0.2862600	0.3630100	-0.0827400	-0.2527200	0.5695100	-0.1756400	-0.2923700	0.4850200	-0.1795500	-0.3261700	0.3367900	-0.1036300	-0.2742700	1.0796500	-0.2258700	-0.0690600	1.0289700	-0.2328500	-0.0285600	0.8235200	-0.2201300	-0.1072800
244	4.0500000	0.7993500	1.3419100	-0.1326100	0.8046400	1.3286300	0.0510300	0.7139100	1.0240500	0.1150300	0.7263400	0.7241800	0.1360900	0.8025000	1.3584900	-0.3191900	0.7500900	1.0692700	-0.4105700	0.8810200	0.7956900	-0.4647100	0.8333500	0.8019800	-0.1501900	0.8406400	0.8052000	-0.0383200	0.8949000	0.3450100	-0.0885600	0.8903800	-0.1698900	-0.0920800	0.8162200	0.7996700	-0.2613800	0.8531300	0.3351600	-0.2865800	0.4082100	-0.0701600	-0.2633000	0.5947200	-0.1774800	-0.2856300	0.5183600	-0.1797000	-0.3201400	0.3710900	-0.0895300	-0.2741700	1.0802600	-0.2265500	-0.0673800	1.0282000	-0.2348000	-0.0282200	0.8183500	-0.2216200	-0.1049200
245	4.0666667	0.8159300	1.3449000	-0.1330000	0.8268200	1.3311100	0.0548300	0.7377500	1.0259300	0.1155600	0.7606100	0.7290100	0.1342200	0.8193100	1.3593400	-0.3195100	0.7646500	1.0700000	-0.4054600	0.8835500	0.7951000	-0.4589800	0.8619900	0.8028300	-0.1509600	0.8686500	0.8051700	-0.0348300	0.8994600	0.3376700	-0.0866100	0.8903100	-0.1706100	-0.0919700	0.8406100	0.8009600	-0.2643200	0.8922800	0.3418800	-0.2859800	0.4672000	-0.0572300	-0.2759900	0.6272600	-0.1830100	-0.2828100	0.5627700	-0.1827200	-0.3178500	0.4048400	-0.0774000	-0.2749900	1.0811600	-0.2264000	-0.0678200	1.0289800	-0.2349800	-0.0285300	0.8155700	-0.2216100	-0.1032100
246	4.0833333	0.8366400	1.3491100	-0.1354600	0.8444300	1.3338400	0.0551000	0.7579200	1.0274600	0.1141400	0.8039700	0.7357100	0.1334600	0.8468100	1.3598500	-0.3198000	0.7837800	1.0707500	-0.3994700	0.8922300	0.7959000	-0.4508000	0.8792200	0.8035300	-0.1516400	0.8879100	0.8050300	-0.0323300	0.9057000	0.3319000	-0.0840900	0.8902400	-0.1699500	-0.0919400	0.8714400	0.8032300	-0.2657400	0.9296800	0.3495700	-0.2865900	0.5306200	-0.0457400	-0.2830700	0.6748200	-0.1817800	-0.2855600	0.6192400	-0.1820000	-0.3200300	0.4416000	-0.0657800	-0.2781700	1.0801500	-0.2266700	-0.0690700	1.0303800	-0.2337800	-0.0289300	0.8173000	-0.2203900	-0.1047300
